<?xml version="1.0" standalone="no"?>
<!DOCTYPE svg PUBLIC "-//W3C//DTD SVG 20010904//EN"
 "http://www.w3.org/TR/2001/REC-SVG-20010904/DTD/svg10.dtd">
<svg version="1.0" xmlns="http://www.w3.org/2000/svg"
 width="512.000000pt" height="512.000000pt" viewBox="0 0 512.000000 512.000000"
 preserveAspectRatio="xMidYMid meet">
<metadata>
Created by potrace 1.16, written by Peter Selinger 2001-2019
</metadata>
<g transform="translate(0.000000,512.000000) scale(0.100000,-0.100000)"
fill="none" stroke="none">
<path d="M0 2560 l0 -2560 2560 0 2560 0 0 2560 0 2560 -2560 0 -2560 0 0
-2560z m1692 2166 c149 -29 319 -105 498 -223 107 -71 286 -210 329 -257 14
-14 29 -26 35 -26 6 0 45 29 86 65 237 207 481 356 690 423 75 24 101 27 220
27 119 0 141 -3 183 -22 115 -53 197 -141 252 -272 95 -226 98 -627 9 -1032
-5 -24 -2 -27 78 -53 625 -206 993 -544 940 -863 -19 -111 -71 -203 -176 -309
-167 -168 -393 -297 -726 -415 -123 -43 -116 -25 -82 -214 61 -347 51 -639
-28 -856 -91 -250 -282 -361 -546 -315 -253 43 -505 186 -850 481 l-41 35 -74
-66 c-325 -288 -676 -464 -926 -464 -322 1 -503 277 -503 770 0 131 21 327 50
478 21 105 20 122 -5 122 -31 0 -296 106 -415 165 -419 210 -627 468 -581 720
50 275 405 553 926 726 105 35 98 22 75 119 -40 169 -63 464 -50 633 39 479
258 695 632 623z"/>
<path d="M1490 4499 c-125 -38 -188 -188 -197 -470 -6 -166 4 -281 38 -468
l22 -113 31 6 c17 3 85 16 151 30 66 14 194 35 283 48 l164 23 96 124 c54 69
145 179 203 245 l107 121 -22 24 c-37 41 -217 182 -311 244 -226 149 -447 221
-565 186z" fill="#61DBFB"/>
<path d="M3465 4503 c-198 -44 -415 -174 -704 -421 l-35 -30 35 -40 c19 -22
75 -87 125 -144 50 -58 127 -152 171 -209 l81 -104 163 -23 c89 -13 230 -36
312 -53 82 -16 151 -29 152 -27 7 7 45 241 56 343 14 131 6 352 -16 445 -46
196 -118 271 -256 269 -35 -1 -73 -3 -84 -6z" fill="#61DBFB"/>
<path d="M2484 3804 c-38 -43 -95 -109 -127 -148 l-58 -71 131 -3 c71 -1 189
-1 260 0 l130 3 -98 115 c-55 63 -115 130 -134 148 l-35 33 -69 -77z" fill="#61DBFB"/>
<path d="M2235 3340 c-139 -11 -115 9 -243 -195 -177 -281 -328 -571 -317
-608 21 -68 217 -419 347 -619 l89 -136 87 -8 c112 -11 610 -11 725 0 l89 8
72 111 c134 208 274 456 342 607 l28 63 -67 131 c-79 156 -203 369 -303 522
-71 108 -74 111 -116 118 -73 11 -607 15 -733 6z m482 -351 c73 -28 125 -63
185 -126 128 -138 154 -339 67 -520 -34 -71 -131 -163 -214 -204 -68 -33 -73
-34 -195 -34 -121 0 -127 1 -192 33 -299 146 -361 526 -123 755 122 116 312
155 472 96z" fill="#61DBFB"/>
<path d="M1681 3275 c-69 -13 -157 -31 -197 -40 l-72 -16 20 -67 c11 -37 40
-122 65 -190 l45 -123 82 148 c46 81 106 185 134 231 29 45 51 82 50 81 -2 0
-59 -11 -127 -24z" fill="#61DBFB"/>
<path d="M3395 3161 c46 -75 105 -177 132 -228 l49 -92 36 97 c51 137 92 272
85 279 -9 8 -113 31 -258 57 l-126 23 82 -136z" fill="#61DBFB"/>
<path d="M1080 3120 c-291 -103 -501 -221 -632 -358 -79 -82 -110 -139 -110
-203 0 -142 172 -306 477 -454 145 -71 360 -153 371 -143 3 3 31 84 64 179 32
96 81 228 108 294 49 117 50 120 35 155 -52 121 -103 256 -153 401 l-56 166
-104 -37z" fill="#61DBFB"/>
<path d="M3890 3027 c-38 -118 -144 -399 -170 -446 -7 -14 4 -50 46 -152 30
-74 80 -208 111 -299 31 -91 58 -167 59 -169 7 -9 228 76 351 134 172 82 290
160 381 250 154 154 155 261 4 417 -134 140 -363 267 -659 368 l-81 28 -42
-131z" fill="#61DBFB"/>
<path d="M1535 2253 c-21 -55 -115 -338 -115 -348 0 -8 30 -20 73 -29 113 -26
298 -58 304 -53 2 3 -19 43 -48 89 -29 45 -87 145 -129 221 -58 103 -79 133
-85 120z" fill="#61DBFB"/>
<path d="M3511 2156 c-34 -64 -91 -164 -126 -222 -36 -59 -65 -108 -65 -111 0
-3 19 -2 43 2 64 10 341 65 344 69 4 4 -105 324 -122 355 -11 22 -15 18 -74
-93z" fill="#61DBFB"/>
<path d="M1354 1656 c-2 -6 -12 -58 -23 -116 -76 -404 -39 -768 90 -885 48
-43 106 -59 185 -51 191 20 438 156 715 395 l77 66 -71 75 c-74 79 -208 240
-292 352 -47 63 -53 67 -100 73 -142 18 -382 58 -473 79 -71 15 -105 19 -108
12z" fill="#61DBFB"/>
<path d="M3749 1666 c-12 -12 -343 -71 -569 -101 -39 -5 -49 -12 -75 -48 -55
-77 -221 -281 -299 -367 l-77 -85 38 -33 c186 -161 345 -270 496 -342 124 -59
202 -80 296 -80 81 0 110 12 157 62 76 80 105 189 111 419 6 182 -1 267 -38
467 -19 101 -26 121 -40 108z" fill="#61DBFB"/>
<path d="M2308 1523 c12 -20 189 -226 224 -260 l34 -33 81 93 c45 50 103 119
131 152 l50 60 -263 0 c-199 0 -262 -3 -257 -12z" fill="#61DBFB"/>
</g>
</svg>
